<?xml version="1.0" encoding="utf-8"?>
<!-- Generator: Adobe Illustrator 26.0.3, SVG Export Plug-In . SVG Version: 6.00 Build 0)  -->
<svg version="1.1" id="svg965" xmlns:svg="http://www.w3.org/2000/svg"
	 xmlns="http://www.w3.org/2000/svg" xmlns:xlink="http://www.w3.org/1999/xlink" x="0px" y="0px" viewBox="0 0 24 24"
	 style="enable-background:new 0 0 24 24;" xml:space="preserve">
<g id="g963">
	<path id="path961" d="M22.2,12c0-1.4-0.9-2.7-2.2-3.3c0.5-1.4,0.2-2.9-0.8-3.9s-2.5-1.3-3.9-0.8c-0.7-1.3-1.9-2.2-3.3-2.2
		S9.3,2.6,8.7,3.9C7.3,3.5,5.8,3.7,4.8,4.8S3.5,7.3,4,8.7C2.6,9.3,1.8,10.6,1.8,12s0.9,2.7,2.2,3.3c-0.5,1.4-0.2,2.9,0.8,3.9
		s2.5,1.3,3.9,0.8c0.7,1.3,1.9,2.2,3.3,2.2s2.7-0.9,3.3-2.2c1.4,0.5,2.9,0.2,3.9-0.8s1.3-2.5,0.8-3.9C21.4,14.7,22.2,13.4,22.2,12z
		 M10.5,16.2l-3.7-3.7L8.2,11l2.3,2.3l4.8-5.2l1.5,1.4C16.7,9.4,10.5,16.2,10.5,16.2z"/>
</g>
</svg>
